<?xml version="1.0" encoding="UTF-8"?> <svg xmlns="http://www.w3.org/2000/svg" xmlns:xlink="http://www.w3.org/1999/xlink" xmlns:svgjs="http://svgjs.com/svgjs" width="512" height="512" x="0" y="0" viewBox="0 0 512 512" style="enable-background:new 0 0 512 512" xml:space="preserve" class=""> <g> <path xmlns="http://www.w3.org/2000/svg" style="" d="M39.724,476.69v-35.31V150.07c0-24.373,19.765-44.138,44.138-44.138h26.483h44.138h211.862V370.76 v35.31v35.31l0,0" fill="#9fed68" data-original="#289f87" class=""></path> <g xmlns="http://www.w3.org/2000/svg"> <path style="" d="M366.345,423.724H172.138c-24.373,0-44.138-19.765-44.138-44.138V105.931h238.345V423.724z" fill="#6eb63c" data-original="#208673" class=""></path> <path style="" d="M39.724,476.69h61.793v-35.31V105.931H83.862c-24.373,0-44.138,19.765-44.138,44.138V476.69z" fill="#6eb63c" data-original="#208673" class=""></path> </g> <path xmlns="http://www.w3.org/2000/svg" style="" d="M366.345,512H75.034c-19.5,0-35.31-15.81-35.31-35.31l0,0c0-19.5,15.81-35.31,35.31-35.31h291.31V512 H366.345z" fill="#b9b9b9" data-original="#b9b9b9"></path> <path xmlns="http://www.w3.org/2000/svg" style="" d="M154.483,370.759v-35.31V44.138C154.483,19.765,174.248,0,198.621,0h26.483h247.172v335.448l0,0" fill="#6eb63c" data-original="#ea9d2d" class=""></path> <g xmlns="http://www.w3.org/2000/svg"> <rect x="251.59" y="35.31" style="" width="185.38" height="105.93" fill="#3a800a" data-original="#b47923" class=""></rect> <rect x="278.07" y="176.55" style="" width="132.41" height="17.655" fill="#3a800a" data-original="#b47923" class=""></rect> <rect x="278.07" y="211.86" style="" width="132.41" height="17.655" fill="#3a800a" data-original="#b47923" class=""></rect> <rect x="366.35" y="291.31" style="" width="44.14" height="17.655" fill="#3a800a" data-original="#b47923" class=""></rect> </g> <path xmlns="http://www.w3.org/2000/svg" style="" d="M216.276,0v335.448v35.31h-61.793V105.931V44.138C154.483,19.765,174.248,0,198.621,0H216.276z" fill="#427a1c" data-original="#d68f29" class=""></path> <path xmlns="http://www.w3.org/2000/svg" style="" d="M366.345,406.069H189.793c-19.5,0-35.31-15.81-35.31-35.31l0,0c0-19.5,15.81-35.31,35.31-35.31 h282.483v70.621h-35.31" fill="#dbdbdb" data-original="#dbdbdb" class=""></path> <path xmlns="http://www.w3.org/2000/svg" style="" d="M189.793,406.069h176.552h70.621h35.31v-35.31H154.483 C154.483,390.259,170.293,406.069,189.793,406.069z" fill="#b9b9b9" data-original="#b9b9b9"></path> <polygon xmlns="http://www.w3.org/2000/svg" style="" points="366.345,370.759 436.966,370.759 436.966,476.69 401.655,441.379 366.345,476.69 " fill="#f3d06b" data-original="#dc4d41" class=""></polygon> <rect xmlns="http://www.w3.org/2000/svg" x="366.35" y="370.76" style="" width="70.62" height="26.483" fill="#d8b247" data-original="#c7463b" class=""></rect> <g xmlns="http://www.w3.org/2000/svg"> </g> <g xmlns="http://www.w3.org/2000/svg"> </g> <g xmlns="http://www.w3.org/2000/svg"> </g> <g xmlns="http://www.w3.org/2000/svg"> </g> <g xmlns="http://www.w3.org/2000/svg"> </g> <g xmlns="http://www.w3.org/2000/svg"> </g> <g xmlns="http://www.w3.org/2000/svg"> </g> <g xmlns="http://www.w3.org/2000/svg"> </g> <g xmlns="http://www.w3.org/2000/svg"> </g> <g xmlns="http://www.w3.org/2000/svg"> </g> <g xmlns="http://www.w3.org/2000/svg"> </g> <g xmlns="http://www.w3.org/2000/svg"> </g> <g xmlns="http://www.w3.org/2000/svg"> </g> <g xmlns="http://www.w3.org/2000/svg"> </g> <g xmlns="http://www.w3.org/2000/svg"> </g> </g> </svg> 