<?xml version="1.0" encoding="UTF-8"?> <svg xmlns="http://www.w3.org/2000/svg" xmlns:xlink="http://www.w3.org/1999/xlink" xmlns:svgjs="http://svgjs.com/svgjs" width="512" height="512" x="0" y="0" viewBox="0 0 512 512" style="enable-background:new 0 0 512 512" xml:space="preserve" class=""> <g> <rect xmlns="http://www.w3.org/2000/svg" fill="#6eb63c" height="464" rx="32" width="256" x="96" y="24" data-original="#2b70a8" style="" class=""></rect> <path xmlns="http://www.w3.org/2000/svg" d="m352 56v32h-256v-32a32 32 0 0 1 32-32h192a32 32 0 0 1 32 32z" fill="#c2c5c6" data-original="#c2c5c6" style="" class=""></path> <path xmlns="http://www.w3.org/2000/svg" d="m352 408v48a32 32 0 0 1 -32 32h-192a32 32 0 0 1 -32-32v-48z" fill="#c2c5c6" data-original="#c2c5c6" style="" class=""></path> <circle xmlns="http://www.w3.org/2000/svg" cx="176" cy="56" fill="#7e8488" r="8" data-original="#7e8488" style="" class=""></circle> <path xmlns="http://www.w3.org/2000/svg" d="m272 64h-56a8 8 0 0 1 0-16h56a8 8 0 0 1 0 16z" fill="#7e8488" data-original="#7e8488" style="" class=""></path> <path xmlns="http://www.w3.org/2000/svg" d="m416 296v192h-56a80 80 0 0 1 -80-80h.16l-51.9-76.805a32 32 0 0 1 8.6-44.43 32 32 0 0 1 44.43 8.6l46.71 64.635h24v-192l60.235 112.941a32 32 0 0 1 3.765 15.059z" fill="#f5cbaa" data-original="#f5cbaa" style="" class=""></path> <circle xmlns="http://www.w3.org/2000/svg" cx="224" cy="448" fill="#7e8488" r="16" data-original="#7e8488" style="" class=""></circle> <path xmlns="http://www.w3.org/2000/svg" d="m128 120h192v64h-192z" fill="#efefef" data-original="#a4d4f4" style="" class=""></path> <path xmlns="http://www.w3.org/2000/svg" d="m224 160h-64a8 8 0 0 1 0-16h64a8 8 0 0 1 0 16z" fill="#6eb63c" data-original="#2b70a8" style="" class=""></path> <g xmlns="http://www.w3.org/2000/svg" fill="#a4d4f4"> <path d="m240 224h-112a8 8 0 0 1 0-16h112a8 8 0 0 1 0 16z" fill="#efefef" data-original="#a4d4f4" style="" class=""></path> <path d="m240 256h-48a8 8 0 0 1 0-16h48a8 8 0 0 1 0 16z" fill="#efefef" data-original="#a4d4f4" style="" class=""></path> <path d="m176 288h-48a8 8 0 0 1 0-16h48a8 8 0 0 1 0 16z" fill="#efefef" data-original="#a4d4f4" style="" class=""></path> <path d="m176 320h-48a8 8 0 0 1 0-16h48a8 8 0 0 1 0 16z" fill="#efefef" data-original="#a4d4f4" style="" class=""></path> <circle cx="128" cy="376" r="8" fill="#efefef" data-original="#a4d4f4" style="" class=""></circle> <circle cx="160" cy="376" r="8" fill="#efefef" data-original="#a4d4f4" style="" class=""></circle> <circle cx="192" cy="376" r="8" fill="#efefef" data-original="#a4d4f4" style="" class=""></circle> <path d="m192 352h-64a8 8 0 0 1 0-16h64a8 8 0 0 1 0 16z" fill="#efefef" data-original="#a4d4f4" style="" class=""></path> <path d="m272 216h48v32h-48z" fill="#efefef" data-original="#a4d4f4" style="" class=""></path> <path d="m160 256h-32a8 8 0 0 1 0-16h32a8 8 0 0 1 0 16z" fill="#efefef" data-original="#a4d4f4" style="" class=""></path> </g> </g> </svg> 