<?xml version="1.0" encoding="UTF-8"?> <svg xmlns="http://www.w3.org/2000/svg" xmlns:xlink="http://www.w3.org/1999/xlink" xmlns:svgjs="http://svgjs.com/svgjs" width="512" height="512" x="0" y="0" viewBox="0 0 512 512" style="enable-background:new 0 0 512 512" xml:space="preserve" class=""> <g> <g xmlns="http://www.w3.org/2000/svg"> <path d="m378.5 201h-245c67.655 0 122.5 54.845 122.5 122.5l-20 147.5h250c8.284 0 15-6.716 15-15v-132.5c0-67.655-54.845-122.5-122.5-122.5z" fill="#6eb63c" data-original="#aadc1e" style="" class=""></path> <path d="m501 323.5c0-67.655-54.845-122.5-122.5-122.5v270h107.5c8.284 0 15-6.716 15-15z" fill="#518c27" data-original="#8cc314" style="" class=""></path> <path d="m11 323.5v132.5c0 8.284 6.716 15 15 15h230v-147.5c0-67.655-54.845-122.5-122.5-122.5-67.655 0-122.5 54.845-122.5 122.5z" fill="#acacac" data-original="#49acff" style="" class=""></path> <path d="m431 361c-8.284 0-15 6.716-15 15v95h30v-95c0-8.284-6.716-15-15-15z" fill="#6bc62d" data-original="#64a000" style="" class=""></path> <path d="m66 471v-95c0-8.284 6.716-15 15-15s15 6.716 15 15v95" fill="#7d8890" data-original="#1790e7" style="" class=""></path> <path d="m32.5 316h-17.5c-8.284 0-15-6.716-15-15v-37.5c0-17.92 14.58-32.5 32.5-32.5 23.435 0 42.5 19.065 42.5 42.5s-19.065 42.5-42.5 42.5z" fill="#ffd5b6" data-original="#ffd5b6" style="" class=""></path> <path d="m437 273.5c0-23.435 19.065-42.5 42.5-42.5 17.92 0 32.5 14.58 32.5 32.5v37.5c0 8.284-6.716 15-15 15h-17.5c-23.435 0-42.5-19.065-42.5-42.5z" fill="#ffc896" data-original="#ffc896" style="" class=""></path> <path d="m256 323.5c0-67.655-54.845-122.5-122.5-122.5v270h122.5z" fill="#7d8890" data-original="#1790e7" style="" class=""></path> <path d="m133.5 231c-52.383 0-95-42.617-95-95s42.617-95 95-95 95 42.617 95 95-42.617 95-95 95z" fill="#ffd5b6" data-original="#ffd5b6" style="" class=""></path> <path d="m133.5 41v190c52.383 0 95-42.617 95-95s-42.617-95-95-95z" fill="#ffc896" data-original="#ffc896" style="" class=""></path> <path d="m378.5 231c-52.383 0-95-42.617-95-95s42.617-95 95-95 95 42.617 95 95-42.617 95-95 95z" fill="#ffd5b6" data-original="#ffd5b6" style="" class=""></path> <path d="m378.5 41v190c52.383 0 95-42.617 95-95s-42.617-95-95-95z" fill="#ffc896" data-original="#ffc896" style="" class=""></path> </g> </g> </svg> 