<?xml version="1.0" encoding="UTF-8"?> <svg xmlns="http://www.w3.org/2000/svg" width="114" height="42" viewBox="0 0 114 42" fill="none"> <path d="M110.738 41.4257C110.973 41.5705 111.281 41.4974 111.426 41.2623L113.786 37.4312C113.931 37.1961 113.858 36.888 113.623 36.7432C113.388 36.5983 113.08 36.6715 112.935 36.9066L110.837 40.312L107.431 38.2137C107.196 38.0689 106.888 38.142 106.743 38.3771C106.598 38.6122 106.671 38.9202 106.907 39.0651L110.738 41.4257ZM1 41C1.48647 41.1155 1.48644 41.1156 1.48646 41.1156C1.48651 41.1154 1.48656 41.1152 1.48666 41.1147C1.48687 41.1139 1.48722 41.1124 1.48773 41.1103C1.48873 41.1062 1.49033 41.0996 1.49252 41.0907C1.49692 41.0729 1.50372 41.0456 1.51304 41.0092C1.53167 40.9364 1.56034 40.827 1.59985 40.6835C1.67888 40.3966 1.80127 39.9733 1.97346 39.4331C2.31786 38.3526 2.86129 36.8051 3.65513 34.9464C5.24328 31.2278 7.83083 26.27 11.8268 21.3138C19.8082 11.4144 33.422 1.5 56 1.5V0.5C33.078 0.5 19.1918 10.5856 11.0483 20.6862C6.98168 25.73 4.35048 30.7722 2.73549 34.5536C1.92777 36.4449 1.37354 38.0224 1.02069 39.1294C0.844241 39.683 0.718095 40.119 0.635747 40.418C0.594571 40.5675 0.564341 40.6828 0.544243 40.7613C0.534194 40.8006 0.526679 40.8307 0.521594 40.8513C0.519052 40.8616 0.517117 40.8696 0.515778 40.8751C0.515108 40.8779 0.514587 40.8801 0.514213 40.8816C0.514026 40.8824 0.513856 40.8831 0.513763 40.8835C0.513629 40.8841 0.513532 40.8845 1 41ZM56 1.5C78.578 1.5 92.1918 11.4144 100.173 21.3138C104.169 26.27 106.757 31.2278 108.345 34.9464C109.139 36.8051 109.682 38.3526 110.027 39.4331C110.199 39.9733 110.321 40.3966 110.4 40.6835C110.44 40.827 110.468 40.9364 110.487 41.0092C110.496 41.0456 110.503 41.0729 110.507 41.0907C110.51 41.0996 110.511 41.1062 110.512 41.1103C110.513 41.1124 110.513 41.1139 110.513 41.1147C110.513 41.1152 110.514 41.1154 110.514 41.1156C110.514 41.1156 110.514 41.1155 111 41C111.486 40.8845 111.486 40.8841 111.486 40.8835C111.486 40.8831 111.486 40.8824 111.486 40.8816C111.485 40.8801 111.485 40.8779 111.484 40.8751C111.483 40.8696 111.481 40.8616 111.478 40.8513C111.473 40.8307 111.466 40.8006 111.456 40.7613C111.436 40.6828 111.405 40.5675 111.364 40.418C111.282 40.119 111.156 39.683 110.979 39.1294C110.626 38.0224 110.072 36.4449 109.265 34.5536C107.65 30.7722 105.018 25.73 100.952 20.6862C92.8082 10.5856 78.922 0.5 56 0.5V1.5Z" fill="white"></path> </svg> 