<?xml version="1.0" encoding="UTF-8"?> <svg xmlns="http://www.w3.org/2000/svg" width="512" height="512" viewBox="0 0 512 512" fill="none"> <path d="M512 256C512 397.387 397.387 512 256 512C114.613 512 0 397.387 0 256C0 114.613 114.613 0 256 0C397.387 0 512 114.613 512 256Z" fill="#6EB63C"></path> <path d="M237.539 428.992C258.664 408.973 268.031 381.316 268.031 381.316L233.984 352.41C233.984 352.41 192.148 272.039 192.406 272.242C99 163.621 169.516 16.3516 170.312 14.6914C71.0781 49.9414 0 144.676 0 256C0 387.762 99.5664 496.277 227.555 510.438C210.879 485.18 214.68 450.66 237.539 428.992Z" fill="#3A800A"></path> <path d="M240.352 393.606C232.375 393.606 224.355 391.055 217.598 385.84L96.918 292.75C80.6133 280.176 77.5898 256.762 90.168 240.457C102.742 224.156 126.156 221.133 142.461 233.707L235.828 305.734L364.648 163.164C378.453 147.887 402.027 146.692 417.309 160.5C432.586 174.301 433.781 197.879 419.973 213.156L268.031 381.317C260.703 389.426 250.563 393.606 240.352 393.606Z" fill="#E6E9ED"></path> </svg> 