<?xml version="1.0" encoding="UTF-8"?> <svg xmlns="http://www.w3.org/2000/svg" width="49" height="26" viewBox="0 0 49 26" fill="none"> <path fill-rule="evenodd" clip-rule="evenodd" d="M0 13C0 13 10.969 26 24.5 26C38.031 26 49 13 49 13C49 13 38.031 0 24.5 0C10.969 0 0 13 0 13ZM4.13883 13C5.29638 14.1298 6.93963 15.6071 8.9495 17.0804C13.1637 20.1696 18.6605 23 24.5 23C30.3395 23 35.8363 20.1696 40.0505 17.0804C42.0604 15.6071 43.7036 14.1298 44.8612 13C43.7036 11.8702 42.0604 10.3929 40.0505 8.91956C35.8363 5.83038 30.3395 3 24.5 3C18.6605 3 13.1637 5.83038 8.9495 8.91956C6.93963 10.3929 5.29638 11.8702 4.13883 13Z" fill="white"></path> <path fill-rule="evenodd" clip-rule="evenodd" d="M24.5 17C26.9853 17 29 14.9853 29 12.5C29 10.0147 26.9853 8 24.5 8C22.0147 8 20 10.0147 20 12.5C20 14.9853 22.0147 17 24.5 17ZM24.5 20C28.6421 20 32 16.6421 32 12.5C32 8.35786 28.6421 5 24.5 5C20.3579 5 17 8.35786 17 12.5C17 16.6421 20.3579 20 24.5 20Z" fill="white"></path> </svg> 