<?xml version="1.0" encoding="UTF-8"?> <svg xmlns="http://www.w3.org/2000/svg" xmlns:xlink="http://www.w3.org/1999/xlink" xmlns:svgjs="http://svgjs.com/svgjs" width="512" height="512" x="0" y="0" viewBox="0 0 512 512" style="enable-background:new 0 0 512 512" xml:space="preserve" class=""> <g> <g xmlns="http://www.w3.org/2000/svg"> <g> <path d="m225.89 433.517h60.22v47.578h-60.22z" fill="#8e8e8e" data-original="#c7c2c9" style="" class=""></path> <path d="m303.597 481.095h-95.194c-15.362 0-27.815 12.453-27.815 27.815 0 1.707 1.384 3.091 3.091 3.091h144.643c1.707 0 3.091-1.384 3.091-3.091-.001-15.362-12.454-27.815-27.816-27.815z" fill="#655e67" data-original="#655e67" style="" class=""></path> <path d="m303.597 481.095h-30.905c15.362 0 27.815 12.453 27.815 27.815 0 1.707-1.384 3.091-3.091 3.091h30.905c1.707 0 3.091-1.384 3.091-3.091 0-15.362-12.453-27.815-27.815-27.815z" fill="#544f56" data-original="#544f56" style="" class=""></path> <path d="m481.095 433.517h-450.19c-17.068 0-30.905-13.837-30.905-30.906v-262.317c0-17.069 13.837-30.905 30.905-30.905h450.189c17.069 0 30.905 13.837 30.905 30.905v262.318c.001 17.068-13.836 30.905-30.904 30.905z" fill="#655e67" data-original="#655e67" style="" class=""></path> <path d="m481.095 109.388h-30.905c17.069 0 30.905 13.837 30.905 30.905v262.318c0 17.068-13.837 30.905-30.905 30.905h30.905c17.069 0 30.905-13.837 30.905-30.905v-262.317c0-17.069-13.837-30.906-30.905-30.906z" fill="#544f56" data-original="#544f56" style="" class=""></path> <path d="m30.905 399.521v-256.137c0-1.707 1.384-3.091 3.091-3.091h444.008c1.707 0 3.091 1.384 3.091 3.091v256.137c0 1.707-1.384 3.091-3.091 3.091h-444.008c-1.707 0-3.091-1.384-3.091-3.091z" fill="#ecf5ff" data-original="#ecf5ff" style="" class=""></path> <path d="m478.004 140.294h-30.905c1.707 0 3.091 1.384 3.091 3.091v256.137c0 1.707-1.384 3.091-3.091 3.091h30.905c1.707 0 3.091-1.384 3.091-3.091v-256.138c0-1.706-1.384-3.09-3.091-3.09z" fill="#dceafc" data-original="#dceafc" style="" class=""></path> </g> <path d="m392.33 402.612h-272.66v-371.707c0-17.068 13.837-30.905 30.905-30.905h210.849c17.069 0 30.905 13.837 30.905 30.905v371.707z" fill="#6eb63c" data-original="#f7f6f7" style="" class=""></path> <path d="m361.425 0h-30.905c17.069 0 30.905 13.837 30.905 30.905v371.706h30.905v-371.706c0-17.068-13.837-30.905-30.905-30.905z" fill="#53862f" data-original="#e2dfe3" style="" class=""></path> <g> <circle cx="256" cy="137.529" fill="#b3e59f" r="91.171" data-original="#b3e59f" style="" class=""></circle> <path d="m256 46.358c-5.266 0-10.428.455-15.453 1.316 42.937 7.362 75.718 44.85 75.718 89.855s-32.781 82.493-75.718 89.855c5.025.861 10.186 1.316 15.453 1.316 50.272 0 91.171-40.899 91.171-91.171s-40.899-91.171-91.171-91.171z" fill="#95d6a4" data-original="#95d6a4" style="" class=""></path> <g> <path d="m240.431 177.857c-5.276 0-10.551-2.007-14.567-6.022l-17.118-17.119c-6.034-6.035-6.034-15.819.001-21.853s15.819-6.036 21.854 0l7.646 7.647c1.207 1.207 3.164 1.207 4.371 0l38.474-38.474c5.883-5.883 15.467-6.425 21.621-.825 6.571 5.979 6.751 16.16.541 22.369l-48.254 48.253c-4.017 4.016-9.293 6.024-14.569 6.024z" fill="#ffffff" data-original="#ffffff" style="" class=""></path> </g> </g> <g> <path d="m344.963 286.905h-177.926c-4.267 0-7.726-3.459-7.726-7.726s3.459-7.726 7.726-7.726h177.927c4.267 0 7.726 3.459 7.726 7.726s-3.46 7.726-7.727 7.726z" fill="#8e8e8e" data-original="#c7c2c9" style="" class=""></path> </g> <g> <path d="m344.963 333.264h-177.926c-4.267 0-7.726-3.459-7.726-7.726s3.459-7.726 7.726-7.726h177.927c4.267 0 7.726 3.459 7.726 7.726s-3.46 7.726-7.727 7.726z" fill="#8e8e8e" data-original="#c7c2c9" style="" class=""></path> </g> </g> </g> </svg> 