<?xml version="1.0" encoding="UTF-8"?> <svg xmlns="http://www.w3.org/2000/svg" width="1083" height="1083" viewBox="0 0 1083 1083" fill="none"> <g clip-path="url(#clip0)"> <path d="M477.81 916.99H605.19V1017.63H477.81V916.99Z" fill="#8E8E8E"></path> <path d="M642.179 1017.63H440.821C408.327 1017.63 381.986 1043.97 381.986 1076.46C381.986 1080.07 384.913 1083 388.524 1083H694.478C698.089 1083 701.016 1080.07 701.016 1076.46C701.014 1043.97 674.673 1017.63 642.179 1017.63V1017.63Z" fill="#655E67"></path> <path d="M642.179 1017.63H576.808C609.302 1017.63 635.643 1043.97 635.643 1076.46C635.643 1080.07 632.715 1083 629.105 1083H694.476C698.087 1083 701.014 1080.07 701.014 1076.46C701.014 1043.97 674.673 1017.63 642.179 1017.63V1017.63Z" fill="#544F56"></path> <path d="M1017.63 916.99H65.3713C29.2685 916.99 0 887.721 0 851.616V296.754C0 260.649 29.2685 231.383 65.3713 231.383H1017.63C1053.73 231.383 1083 260.652 1083 296.754V851.618C1083 887.721 1053.73 916.99 1017.63 916.99V916.99Z" fill="#655E67"></path> <path d="M1017.63 231.381H952.257C988.362 231.381 1017.63 260.65 1017.63 296.752V851.616C1017.63 887.719 988.36 916.988 952.257 916.988H1017.63C1053.73 916.988 1083 887.719 1083 851.616V296.755C1083 260.65 1053.73 231.381 1017.63 231.381V231.381Z" fill="#544F56"></path> <path d="M65.3713 845.08V303.291C65.3713 299.68 68.2988 296.752 71.9095 296.752H1011.09C1014.7 296.752 1017.63 299.68 1017.63 303.291V845.08C1017.63 848.691 1014.7 851.619 1011.09 851.619H71.9095C68.2988 851.619 65.3713 848.691 65.3713 845.08V845.08Z" fill="#ECF5FF"></path> <path d="M1011.09 296.755H945.719C949.33 296.755 952.257 299.682 952.257 303.293V845.083C952.257 848.693 949.33 851.621 945.719 851.621H1011.09C1014.7 851.621 1017.63 848.693 1017.63 845.083V303.291C1017.63 299.682 1014.7 296.755 1011.09 296.755V296.755Z" fill="#DCEAFC"></path> <path d="M508.238 598.859L505.251 625.729L503.237 643.83H249.814L247.8 625.729L244.813 598.859C242.158 574.945 245.744 550.751 255.221 528.636C263.57 509.145 267.362 488.007 266.309 466.83L264.736 435.514C263.98 420.364 266.311 405.219 271.588 390.998C276.864 376.777 284.976 363.777 295.431 352.787C305.886 341.797 318.466 333.047 332.406 327.068C346.347 321.089 361.357 318.006 376.525 318.006C391.694 318.006 406.704 321.089 420.644 327.068C434.585 333.047 447.165 341.797 457.62 352.787C468.074 363.777 476.187 376.777 481.463 390.998C486.74 405.219 489.071 420.364 488.315 435.514L486.742 466.83C485.689 488.007 489.481 509.145 497.829 528.636C507.31 550.75 510.896 574.945 508.238 598.859V598.859Z" fill="#8F4D2E"></path> <path d="M508.238 598.859L505.251 625.729H403.678V526.17L421.78 489.966V417.559C421.768 395.74 414.596 374.528 401.365 357.179C388.134 339.829 369.574 327.302 348.536 321.519C365.534 317.155 383.319 316.846 400.459 320.614C417.599 324.383 433.614 332.125 447.214 343.216C460.814 354.308 471.618 368.438 478.757 384.47C485.896 400.501 489.17 417.986 488.315 435.514L486.742 466.83C485.689 488.007 489.481 509.145 497.829 528.636C507.31 550.75 510.896 574.945 508.238 598.859V598.859Z" fill="#82462A"></path> <path d="M425.4 607.627C423.736 607.628 422.088 607.301 420.55 606.664C419.012 606.028 417.615 605.094 416.438 603.918C415.261 602.741 414.328 601.344 413.691 599.806C413.055 598.268 412.728 596.62 412.729 594.956V535.22H340.322V594.956C340.323 596.62 339.996 598.268 339.359 599.806C338.723 601.344 337.789 602.741 336.613 603.918C335.436 605.094 334.039 606.028 332.501 606.664C330.963 607.301 329.315 607.628 327.651 607.627H313.169V661.932H439.881V607.627H425.4Z" fill="#FEC9A3"></path> <path d="M381.983 580.474C393.19 580.352 404.026 576.441 412.729 569.379V535.22H340.322V569.376C349.024 576.439 359.86 580.351 371.068 580.474H381.983Z" fill="#FEB784"></path> <path d="M457.983 435.661V480.915C457.983 502.519 449.401 523.238 434.125 538.515C418.848 553.791 398.129 562.373 376.525 562.373C354.922 562.373 334.203 553.791 318.926 538.515C303.65 523.238 295.068 502.519 295.068 480.915V435.661C312.864 423.802 327.255 407.5 336.815 388.37L340.322 381.356L345.458 385.644C367.947 404.383 393.87 418.563 421.78 427.391C433.6 431.137 445.709 433.903 457.983 435.661V435.661Z" fill="#FEC9A3"></path> <path d="M457.983 435.661V480.915C457.979 499.822 451.401 518.139 439.377 532.729C427.352 547.32 410.628 557.275 392.07 560.891C401.493 551.641 408.975 540.603 414.077 528.424C419.178 516.245 421.797 503.17 421.78 489.966V427.391C433.6 431.137 445.709 433.903 457.983 435.661V435.661Z" fill="#FEC093"></path> <path d="M335.796 471.864C333.111 471.864 330.487 471.068 328.254 469.576C326.021 468.085 324.281 465.964 323.254 463.484C322.226 461.003 321.957 458.273 322.481 455.64C323.005 453.006 324.298 450.587 326.197 448.688C328.095 446.79 330.514 445.497 333.148 444.973C335.781 444.449 338.511 444.718 340.992 445.745C343.473 446.773 345.593 448.513 347.085 450.746C348.577 452.978 349.373 455.603 349.373 458.288C349.369 461.888 347.937 465.339 345.392 467.884C342.847 470.429 339.396 471.861 335.796 471.864V471.864Z" fill="#7A432A"></path> <path d="M417.254 471.864C414.569 471.864 411.944 471.068 409.712 469.576C407.479 468.085 405.739 465.964 404.711 463.484C403.684 461.003 403.415 458.273 403.939 455.64C404.463 453.006 405.756 450.587 407.654 448.688C409.553 446.79 411.972 445.497 414.606 444.973C417.239 444.449 419.969 444.718 422.45 445.745C424.93 446.773 427.051 448.513 428.542 450.746C430.034 452.978 430.831 455.603 430.831 458.288C430.827 461.888 429.395 465.339 426.85 467.884C424.305 470.429 420.854 471.861 417.254 471.864Z" fill="#7A432A"></path> <path d="M376.525 517.119C369.327 517.111 362.425 514.247 357.335 509.157C352.244 504.067 349.381 497.165 349.373 489.966H367.474C367.474 492.366 368.428 494.669 370.125 496.366C371.823 498.063 374.125 499.017 376.525 499.017C378.926 499.017 381.228 498.063 382.925 496.366C384.623 494.669 385.576 492.366 385.576 489.966H403.678C403.67 497.165 400.807 504.067 395.716 509.157C390.626 514.247 383.724 517.111 376.525 517.119V517.119Z" fill="#F7A468"></path> <path d="M331.271 643.831H421.78V707.186H331.271V643.831Z" fill="#E6E9ED"></path> <path d="M560.902 842.576C554.482 843.645 547.89 842.4 542.301 839.062C536.713 835.724 532.492 830.51 530.39 824.35L470.609 712.198C474.415 723.578 475.253 735.741 473.044 747.535C470.834 759.329 465.65 770.363 457.983 779.593V852H295.068V779.593C287.289 770.257 282.053 759.071 279.864 747.117C277.676 735.164 278.611 722.848 282.578 711.361L221.824 824.35C219.492 831.207 214.545 836.865 208.061 840.093C201.577 843.32 194.08 843.855 187.203 841.581C180.326 839.308 174.626 834.409 171.344 827.952C168.062 821.496 167.464 814.004 169.679 807.108L236.135 641.692C240.174 631.632 247.131 623.011 256.112 616.94C265.093 610.869 275.685 607.625 286.526 607.627H322.22L376.525 707.187L430.83 607.627H466.389C477.26 607.635 487.879 610.902 496.874 617.007C505.869 623.112 512.826 631.774 516.847 641.873L582.545 807.108C583.745 810.862 584.124 814.83 583.655 818.743C583.186 822.656 581.881 826.423 579.828 829.787C577.775 833.151 575.023 836.035 571.757 838.241C568.492 840.448 564.79 841.926 560.902 842.576V842.576Z" fill="#6EB63C"></path> <path d="M161.828 810.151L168.356 725.288H222.661V812.487C222.661 820.566 219.452 828.314 213.739 834.027C208.026 839.74 200.278 842.949 192.199 842.949C188.002 842.949 183.85 842.082 180.004 840.402C176.158 838.721 172.701 836.264 169.849 833.185C166.997 830.105 164.813 826.469 163.433 822.506C162.052 818.542 161.506 814.336 161.828 810.151V810.151Z" fill="#6EB63C"></path> <path d="M189.649 593.259C187.091 593.898 184.71 595.104 182.68 596.787C180.651 598.47 179.025 600.587 177.924 602.982C176.822 605.378 176.272 607.99 176.315 610.626C176.358 613.262 176.992 615.855 178.172 618.213L186.458 634.78H154.023C145.592 634.78 137.278 632.817 129.737 629.047L120.718 624.537C119.062 623.71 117.222 623.319 115.373 623.402C113.523 623.485 111.726 624.04 110.151 625.013C108.576 625.986 107.277 627.346 106.375 628.963C105.473 630.579 105 632.4 105 634.251V659.795C105 663.157 105.936 666.452 107.704 669.312C109.471 672.171 112 674.482 115.007 675.986L129.737 683.352C137.278 687.122 145.592 689.085 154.023 689.085H222.661V634.78L210.267 603.795C208.685 599.843 205.724 596.598 201.934 594.661C198.143 592.724 193.779 592.226 189.649 593.259V593.259Z" fill="#FEC9A3"></path> <path d="M168.356 689.085H222.661V725.288H168.356V689.085Z" fill="#E6E9ED"></path> <path d="M560.902 842.576C554.481 843.645 547.89 842.4 542.301 839.062C536.713 835.724 532.492 830.51 530.39 824.35L470.609 712.198C474.415 723.578 475.253 735.741 473.043 747.535C470.834 759.329 465.65 770.363 457.983 779.593V852H298.043C372.746 803.216 435.774 741.308 488.676 612.424C501.539 618.204 511.644 628.767 516.847 641.873L582.545 807.108C583.745 810.862 584.124 814.83 583.655 818.743C583.186 822.656 581.881 826.423 579.828 829.787C577.775 833.151 575.022 836.035 571.757 838.241C568.491 840.448 564.789 841.926 560.902 842.576V842.576Z" fill="#64AA34"></path> <path d="M503.237 815.797L412.729 797.695V670.983L503.237 689.085V815.797Z" fill="#656D78"></path> <path d="M539.441 815.797L629.949 797.695V670.983L539.441 689.085V815.797Z" fill="#656D78"></path> <path d="M503.237 689.085H539.441V815.797H503.237V689.085Z" fill="#59606A"></path> <path d="M521.339 689.085C521.339 681.498 518.647 674.156 513.743 668.367C508.839 662.578 502.04 658.716 494.556 657.468L412.729 643.831V670.983L503.237 689.085H521.339C521.339 681.498 524.031 674.156 528.935 668.367C533.839 662.578 540.638 658.716 548.122 657.468L629.949 643.831V670.983L539.441 689.085H521.339Z" fill="#E6E9ED"></path> <path d="M613.335 814.933L577.132 820.968C575.835 821.184 574.507 821.115 573.24 820.766C571.973 820.417 570.797 819.796 569.794 818.946C568.791 818.097 567.985 817.039 567.432 815.846C566.88 814.653 566.593 813.355 566.593 812.04V778.4C566.593 775.611 567.582 772.913 569.384 770.785C571.187 768.657 573.685 767.237 576.436 766.778L607.177 761.654C608.865 761.373 610.594 761.462 612.244 761.916C613.894 762.371 615.426 763.179 616.732 764.285C618.037 765.392 619.087 766.769 619.806 768.322C620.526 769.874 620.899 771.565 620.898 773.277V806.006C620.898 808.148 620.138 810.221 618.753 811.856C617.368 813.491 615.449 814.581 613.335 814.933Z" fill="#FEC9A3"></path> </g> <defs> <clipPath id="clip0"> <rect width="1083" height="1083" fill="white"></rect> </clipPath> </defs> </svg> 