<?xml version="1.0" encoding="UTF-8"?> <svg xmlns="http://www.w3.org/2000/svg" width="283" height="418" viewBox="0 0 283 418" fill="none"> <path d="M282.823 417.619H0V32.0569C0 14.3528 14.3528 0 32.0569 0H250.765C268.47 0 282.822 14.3528 282.822 32.0569V417.619H282.823Z" fill="#6EB63C"></path> <path d="M250.766 0H218.709C236.414 0 250.766 14.3528 250.766 32.0569V417.618H282.823V32.0569C282.823 14.3528 268.47 0 250.766 0V0Z" fill="#53862F"></path> <path d="M141.412 237.224C193.641 237.224 235.981 194.884 235.981 142.655C235.981 90.426 193.641 48.0859 141.412 48.0859C89.1824 48.0859 46.8423 90.426 46.8423 142.655C46.8423 194.884 89.1824 237.224 141.412 237.224Z" fill="#B3E59F"></path> <path d="M141.412 48.0859C135.949 48.0859 130.595 48.5579 125.383 49.451C169.92 57.0874 203.923 95.9727 203.923 142.655C203.923 189.338 169.92 228.223 125.383 235.859C130.595 236.752 135.948 237.224 141.412 237.224C193.557 237.224 235.981 194.801 235.981 142.655C235.981 90.5094 193.557 48.0859 141.412 48.0859V48.0859Z" fill="#95D6A4"></path> <path d="M125.262 184.486C119.79 184.486 114.318 182.405 110.152 178.24L92.3962 160.483C86.1373 154.223 86.1373 144.074 92.3972 137.815C98.6572 131.556 108.806 131.554 115.066 137.815L122.997 145.747C124.249 146.999 126.279 146.999 127.531 145.747L167.439 105.839C173.541 99.737 183.482 99.1748 189.866 104.984C196.682 111.185 196.868 121.746 190.427 128.186L140.374 178.238C136.208 182.404 130.735 184.486 125.262 184.486V184.486Z" fill="white"></path> <path d="M233.691 297.599H49.1326C44.7066 297.599 41.1187 294.011 41.1187 289.585C41.1187 285.159 44.7066 281.571 49.1326 281.571H233.692C238.118 281.571 241.706 285.159 241.706 289.585C241.706 294.011 238.117 297.599 233.691 297.599V297.599Z" fill="#8E8E8E"></path> <path d="M233.691 345.686H49.1326C44.7066 345.686 41.1187 342.098 41.1187 337.672C41.1187 333.246 44.7066 329.658 49.1326 329.658H233.692C238.118 329.658 241.706 333.246 241.706 337.672C241.706 342.098 238.117 345.686 233.691 345.686V345.686Z" fill="#8E8E8E"></path> </svg> 