<?xml version="1.0" encoding="UTF-8"?> <svg xmlns="http://www.w3.org/2000/svg" xmlns:xlink="http://www.w3.org/1999/xlink" xmlns:svgjs="http://svgjs.com/svgjs" width="512" height="512" x="0" y="0" viewBox="0 0 464 464" style="enable-background:new 0 0 512 512" xml:space="preserve" class=""> <g> <path xmlns="http://www.w3.org/2000/svg" style="" d="M376,464H40V32h224l112,112V464z" fill="#457a21" data-original="#fcf05a" class=""></path> <path xmlns="http://www.w3.org/2000/svg" style="" d="M424,416H88V0h224l112,112V416z" fill="#6eb63c" data-original="#fdbd40" class=""></path> <path xmlns="http://www.w3.org/2000/svg" style="" d="M312,112h112L312,0V112z" fill="#3a681a" data-original="#f49e21" class=""></path> <g xmlns="http://www.w3.org/2000/svg"> <path style="" d="M152,352h-16c-4.418,0-8-3.582-8-8s3.582-8,8-8h16c4.418,0,8,3.582,8,8S156.418,352,152,352z" fill="#e6e6e6" data-original="#e9686a" class=""></path> <path style="" d="M376,352H184c-4.418,0-8-3.582-8-8s3.582-8,8-8h192c4.418,0,8,3.582,8,8S380.418,352,376,352z" fill="#e6e6e6" data-original="#e9686a" class=""></path> <path style="" d="M152,304h-16c-4.418,0-8-3.582-8-8s3.582-8,8-8h16c4.418,0,8,3.582,8,8S156.418,304,152,304z" fill="#e6e6e6" data-original="#e9686a" class=""></path> <path style="" d="M376,304H184c-4.418,0-8-3.582-8-8s3.582-8,8-8h192c4.418,0,8,3.582,8,8S380.418,304,376,304z" fill="#e6e6e6" data-original="#e9686a" class=""></path> <path style="" d="M152,256h-16c-4.418,0-8-3.582-8-8s3.582-8,8-8h16c4.418,0,8,3.582,8,8S156.418,256,152,256z" fill="#e6e6e6" data-original="#e9686a" class=""></path> <path style="" d="M376,256H184c-4.418,0-8-3.582-8-8s3.582-8,8-8h192c4.418,0,8,3.582,8,8S380.418,256,376,256z" fill="#e6e6e6" data-original="#e9686a" class=""></path> <path style="" d="M152,208h-16c-4.418,0-8-3.582-8-8s3.582-8,8-8h16c4.418,0,8,3.582,8,8S156.418,208,152,208z" fill="#e6e6e6" data-original="#e9686a" class=""></path> <path style="" d="M376,208H184c-4.418,0-8-3.582-8-8s3.582-8,8-8h192c4.418,0,8,3.582,8,8S380.418,208,376,208z" fill="#e6e6e6" data-original="#e9686a" class=""></path> <path style="" d="M152,160h-16c-4.418,0-8-3.582-8-8s3.582-8,8-8h16c4.418,0,8,3.582,8,8S156.418,160,152,160z" fill="#e6e6e6" data-original="#e9686a" class=""></path> <path style="" d="M376,160H184c-4.418,0-8-3.582-8-8s3.582-8,8-8h192c4.418,0,8,3.582,8,8S380.418,160,376,160z" fill="#e6e6e6" data-original="#e9686a" class=""></path> <path style="" d="M136,72h48v48h-48V72z" fill="#e6e6e6" data-original="#e9686a" class=""></path> </g> <g xmlns="http://www.w3.org/2000/svg"> </g> <g xmlns="http://www.w3.org/2000/svg"> </g> <g xmlns="http://www.w3.org/2000/svg"> </g> <g xmlns="http://www.w3.org/2000/svg"> </g> <g xmlns="http://www.w3.org/2000/svg"> </g> <g xmlns="http://www.w3.org/2000/svg"> </g> <g xmlns="http://www.w3.org/2000/svg"> </g> <g xmlns="http://www.w3.org/2000/svg"> </g> <g xmlns="http://www.w3.org/2000/svg"> </g> <g xmlns="http://www.w3.org/2000/svg"> </g> <g xmlns="http://www.w3.org/2000/svg"> </g> <g xmlns="http://www.w3.org/2000/svg"> </g> <g xmlns="http://www.w3.org/2000/svg"> </g> <g xmlns="http://www.w3.org/2000/svg"> </g> <g xmlns="http://www.w3.org/2000/svg"> </g> </g> </svg> 